<?xml version="1.0" standalone="yes"?>
<svg xmlns="http://www.w3.org/2000/svg" width="527" height="506">
<path style="fill:#ffffff; stroke:none;" d="M0 0L0 506L527 506L527 0L0 0z"/>
<path style="fill:#e98b74; stroke:none;" d="M339 124C340.506 124.683 341.315 124.826 343 125C341.494 124.317 340.685 124.174 339 124z"/>
<path style="fill:#df5131; stroke:none;" d="M323 172C332.568 171.921 341.663 168.16 351 166.374C354.579 165.69 358.677 166.199 361.852 164.062C366.827 160.713 365.293 152.74 360.891 149.603C357.413 147.125 352.02 147.571 348 148C350.676 144.324 352.493 140.7 351.847 136C350.981 129.694 344.84 123.022 338.005 125.477C334.276 126.816 332.368 130.705 329.981 133.588C324.967 139.647 319.577 145.46 314 151C311.301 153.681 307.07 156.428 305.63 160.06C303.414 165.646 307.41 173.622 313 175.519C316.206 176.606 322.485 175.47 323 172z"/>
<path style="fill:#f0a697; stroke:none;" d="M346 126L347 127L346 126z"/>
<path style="fill:#efab9a; stroke:none;" d="M347 127L348 128L347 127z"/>
<path style="fill:#e98b74; stroke:none;" d="M286 128C287.506 128.683 288.315 128.826 290 129C288.494 128.317 287.685 128.174 286 128z"/>
<path style="fill:#e77155; stroke:none;" d="M290.667 128.333C290.222 128.778 291.278 128.722 291.333 128.667C291.778 128.222 290.722 128.278 290.667 128.333z"/>
<path style="fill:#efab9a; stroke:none;" d="M292 128L293 129L292 128M348 128L349 129L348 128z"/>
<path style="fill:#e98b74; stroke:none;" d="M284 129L285 130L284 129z"/>
<path style="fill:#df5131; stroke:none;" d="M334 177L327 179C327.672 181.697 328.963 184.284 329.491 187C330.742 193.438 327.731 205.612 319 202.603C317.255 202.002 315.558 201.024 314 200.049C311.887 198.726 309.903 197.172 308.004 195.56C297.162 186.354 289.557 172.437 285.347 159C283.419 152.844 280.056 137.692 290.005 136.121C298.85 134.724 302.837 145.792 309.981 147.654C317.321 149.568 312.04 140.096 309.981 138.174C303.641 132.255 294.943 127.344 286 129.394C280.324 130.696 275.537 135.724 271 139.127C262.473 145.522 253.663 151.646 244 156.219C235.741 160.128 220.299 161.609 214.702 169.108C209.872 175.58 210.254 186.416 211.439 194C214.344 212.597 224.036 228.844 239 240.32C245.146 245.034 253.991 250.232 262 247.768C266.832 246.281 269.537 241.695 273.09 238.428C279.169 232.837 286.232 227.693 293.285 223.403C301.125 218.635 311.394 215.671 320 212.425C324.403 210.764 329.303 209.793 332.351 205.892C337.758 198.973 335.506 185.111 334 177z"/>
<path style="fill:#f0a697; stroke:none;" d="M349 129L350 130L349 129z"/>
<path style="fill:#efab9a; stroke:none;" d="M282 130L283 131L282 130z"/>
<path style="fill:#e98b74; stroke:none;" d="M298 130L299 131L298 130z"/>
<path style="fill:#efab9a; stroke:none;" d="M332 130L333 131L332 130z"/>
<path style="fill:#e98b74; stroke:none;" d="M300 131L301 132L300 131z"/>
<path style="fill:#f0a697; stroke:none;" d="M350 131L351 132L350 131z"/>
<path style="fill:#e77c63; stroke:none;" d="M330 133L331 134L330 133z"/>
<path style="fill:#f0a697; stroke:none;" d="M351 133L352 134L351 133z"/>
<path style="fill:#e98b74; stroke:none;" d="M277 134L278 135L277 134z"/>
<path style="fill:#f0a697; stroke:none;" d="M305 134L306 135L305 134z"/>
<path style="fill:#efab9a; stroke:none;" d="M288 135C289.248 135.685 289.548 135.749 291 136C289.752 135.315 289.452 135.251 288 135M306 135L307 136L306 135M328 135L329 136L328 135z"/>
<path style="fill:#f5c3b7; stroke:none;" d="M352 136L352 140C352.71 138.24 352.71 137.76 352 136z"/>
<path style="fill:#f0a697; stroke:none;" d="M273 137L274 138L273 137M296 137L297 138L296 137z"/>
<path style="fill:#ec957f; stroke:none;" d="M298 138L299 139L298 138z"/>
<path style="fill:#f5c3b7; stroke:none;" d="M310 138L311 139L310 138z"/>
<path style="fill:#efab9a; stroke:none;" d="M284 139L285 140L284 139z"/>
<path style="fill:#f5beb5; stroke:none;" d="M311 139L312 140L311 139z"/>
<path style="fill:#f5c3b7; stroke:none;" d="M269 140L270 141L269 140z"/>
<path style="fill:#ec957f; stroke:none;" d="M301 140L302 141L301 140z"/>
<path style="fill:#f5c3b7; stroke:none;" d="M292.667 141.333C292.222 141.778 293.278 141.722 293.333 141.667C293.778 141.222 292.722 141.278 292.667 141.333z"/>
<path style="fill:#efab9a; stroke:none;" d="M302 141L303 142L302 141z"/>
<path style="fill:#dc3e1a; stroke:none;" d="M290 145C292.042 144.105 293.828 143.464 296 143C293.12 141.902 291.65 142.445 290 145z"/>
<path style="fill:#df5131; stroke:none;" d="M296 142C280.231 148.85 294.829 172.666 301.9 182C303.768 184.467 305.797 186.8 308.015 188.96C311.877 192.722 319.639 199.146 324 193C309.302 190.378 295.889 170.287 294.184 156C293.595 151.06 296.957 146.403 296 142z"/>
<path style="fill:#f0a697; stroke:none;" d="M297 142L298 143L297 142M303 142L304 143L303 142z"/>
<path style="fill:#e98b74; stroke:none;" d="M322 142L323 143L322 142z"/>
<path style="fill:#efab9a; stroke:none;" d="M351 142L352 143L351 142M265 143L266 144L265 143M283 143L283 150C284.059 147.466 284.059 145.534 283 143z"/>
<path style="fill:#dc3e1a; stroke:none;" d="M297.667 143.333C297.222 143.778 298.278 143.722 298.333 143.667C298.778 143.222 297.722 143.278 297.667 143.333z"/>
<path style="fill:#e98b74; stroke:none;" d="M299 143L299 145L301 145C300.455 143.365 300.635 143.545 299 143z"/>
<path style="fill:#f5c6bb; stroke:none;" d="M321 143L322 144L321 143z"/>
<path style="fill:#e98b74; stroke:none;" d="M289 144L290 145L289 144z"/>
<path style="fill:#f0a697; stroke:none;" d="M297.667 144.333C297.222 144.778 298.278 144.722 298.333 144.667C298.778 144.222 297.722 144.278 297.667 144.333z"/>
<path style="fill:#f5c6bb; stroke:none;" d="M301.333 144.667C301.278 144.722 301.222 145.778 301.667 145.333C301.722 145.278 301.778 144.222 301.333 144.667z"/>
<path style="fill:#e77c63; stroke:none;" d="M315 144L316 145L315 144z"/>
<path style="fill:#efab9a; stroke:none;" d="M350 144L351 145L350 144z"/>
<path style="fill:#f5c3b7; stroke:none;" d="M262 145L263 146L262 145z"/>
<path style="fill:#f5c6bb; stroke:none;" d="M259 147L260 148L259 147z"/>
<path style="fill:#f0a697; stroke:none;" d="M288 147L288 150C288.696 148.446 288.696 148.554 288 147z"/>
<path style="fill:#efab9a; stroke:none;" d="M294 147L295 148L294 147z"/>
<path style="fill:#f5c6bb; stroke:none;" d="M348.667 147.333C348.222 147.778 349.278 147.722 349.333 147.667C349.778 147.222 348.722 147.278 348.667 147.333z"/>
<path style="fill:#ec957f; stroke:none;" d="M350 147L351 148L350 147z"/>
<path style="fill:#dc3e1a; stroke:none;" d="M352 147C353.506 147.683 354.315 147.826 356 148C354.494 147.317 353.685 147.174 352 147z"/>
<path style="fill:#e77155; stroke:none;" d="M356.667 147.333C356.222 147.778 357.278 147.722 357.333 147.667C357.778 147.222 356.722 147.278 356.667 147.333z"/>
<path style="fill:#f0a697; stroke:none;" d="M309 148L310 149L309 148z"/>
<path style="fill:#ee9f8d; stroke:none;" d="M347 148L348 149L347 148z"/>
<path style="fill:#f0a697; stroke:none;" d="M256 149L257 150L256 149z"/>
<path style="fill:#f5c3b7; stroke:none;" d="M361 149L362 150L361 149z"/>
<path style="fill:#e77155; stroke:none;" d="M283.333 150.667C283.278 150.722 283.222 151.778 283.667 151.333C283.722 151.278 283.778 150.222 283.333 150.667z"/>
<path style="fill:#e98b74; stroke:none;" d="M288.333 150.667C288.278 150.722 288.222 151.778 288.667 151.333C288.722 151.278 288.778 150.222 288.333 150.667z"/>
<path style="fill:#f0a697; stroke:none;" d="M362 150L363 151L362 150z"/>
<path style="fill:#e98b74; stroke:none;" d="M251 152L252 153L251 152z"/>
<path style="fill:#fae3dd; stroke:none;" d="M288.333 152.667C288.278 152.722 288.222 153.778 288.667 153.333C288.722 153.278 288.778 152.222 288.333 152.667z"/>
<path style="fill:#f5c6bb; stroke:none;" d="M249 153L250 154L249 153z"/>
<path style="fill:#f0a697; stroke:none;" d="M364 153L365 154L364 153z"/>
<path style="fill:#f5c3b7; stroke:none;" d="M247 154L248 155L247 154M284.333 154.667C284.278 154.722 284.222 155.778 284.667 155.333C284.722 155.278 284.778 154.222 284.333 154.667z"/>
<path style="fill:#f5c6bb; stroke:none;" d="M310 154L311 155L310 154z"/>
<path style="fill:#f5c3b7; stroke:none;" d="M245 155L246 156L245 155M294.333 155.667C294.278 155.722 294.222 156.778 294.667 156.333C294.722 156.278 294.778 155.222 294.333 155.667z"/>
<path style="fill:#f0a697; stroke:none;" d="M309 155L310 156L309 155z"/>
<path style="fill:#f5c3b7; stroke:none;" d="M243 156L244 157L243 156z"/>
<path style="fill:#ec957f; stroke:none;" d="M284 156L285 157L284 156z"/>
<path style="fill:#e98b74; stroke:none;" d="M289 156L290 157L289 156M308 156L309 157L308 156z"/>
<path style="fill:#efab9a; stroke:none;" d="M365 156L365 160C365.71 158.24 365.71 157.759 365 156z"/>
<path style="fill:#e98b74; stroke:none;" d="M241 157L242 158L241 157z"/>
<path style="fill:#f5c3b7; stroke:none;" d="M289 157L290 158L289 157z"/>
<path style="fill:#e77155; stroke:none;" d="M294.333 157.667C294.278 157.722 294.222 158.778 294.667 158.333C294.722 158.278 294.778 157.222 294.333 157.667z"/>
<path style="fill:#f5c3b7; stroke:none;" d="M238 158L239 159L238 158z"/>
<path style="fill:#f0a697; stroke:none;" d="M236 159L237 160L236 159M285 159L286 160L285 159z"/>
<path style="fill:#e98b74; stroke:none;" d="M305 159L306 160L305 159z"/>
<path style="fill:#f5c6bb; stroke:none;" d="M233 160L234 161L233 160z"/>
<path style="fill:#efab9a; stroke:none;" d="M290 160L291 161L290 160z"/>
<path style="fill:#f5c3b7; stroke:none;" d="M295 160L296 161L295 160M230 161L231 162L230 161z"/>
<path style="fill:#e98b74; stroke:none;" d="M295 161L296 162L295 161z"/>
<path style="fill:#efab9a; stroke:none;" d="M304 161L304 165C304.71 163.24 304.71 162.76 304 161z"/>
<path style="fill:#f5c3b7; stroke:none;" d="M227 162L228 163L227 162M286 162L287 163L286 162z"/>
<path style="fill:#f5c6bb; stroke:none;" d="M224 163L225 164L224 163z"/>
<path style="fill:#f0a697; stroke:none;" d="M291 163L292 164L291 163z"/>
<path style="fill:#f5c3b7; stroke:none;" d="M296 163L297 164L296 163M363 163L364 164L363 163M220 164L221 165L220 164z"/>
<path style="fill:#e98b74; stroke:none;" d="M221 164L222 165L221 164z"/>
<path style="fill:#e77155; stroke:none;" d="M296 164L297 165L296 164z"/>
<path style="fill:#f5c3b7; stroke:none;" d="M218 165L219 166L218 165z"/>
<path style="fill:#e98b74; stroke:none;" d="M287 165L288 166L287 165M292 165L293 166L292 165z"/>
<path style="fill:#dc3e1a; stroke:none;" d="M358.667 165.333C358.222 165.778 359.278 165.722 359.333 165.667C359.778 165.222 358.722 165.278 358.667 165.333z"/>
<path style="fill:#efab9a; stroke:none;" d="M360 165L361 166L360 165z"/>
<path style="fill:#e98b74; stroke:none;" d="M297 166L298 167L297 166z"/>
<path style="fill:#dc3e1a; stroke:none;" d="M349 166C350.769 166.779 352.036 166.912 354 167C352.231 166.221 350.964 166.088 349 166z"/>
<path style="fill:#e98b74; stroke:none;" d="M354 166C355.248 166.685 355.548 166.749 357 167C355.752 166.315 355.452 166.251 354 166z"/>
<path style="fill:#f5c3b7; stroke:none;" d="M357 166L358 167L357 166z"/>
<path style="fill:#f5c6bb; stroke:none;" d="M288 167L289 168L288 167z"/>
<path style="fill:#ec957f; stroke:none;" d="M293 167L294 168L293 167z"/>
<path style="fill:#f0a697; stroke:none;" d="M305 167L306 168L305 167z"/>
<path style="fill:#e98b74; stroke:none;" d="M347.667 167.333C347.222 167.778 348.278 167.722 348.333 167.667C348.778 167.222 347.722 167.278 347.667 167.333z"/>
<path style="fill:#f5c3b7; stroke:none;" d="M349.667 167.333C349.222 167.778 350.278 167.722 350.333 167.667C350.778 167.222 349.722 167.278 349.667 167.333z"/>
<path style="fill:#efab9a; stroke:none;" d="M298 168L299 169L298 168z"/>
<path style="fill:#dc3e1a; stroke:none;" d="M338 168C339.506 168.683 340.315 168.826 342 169C340.494 168.317 339.685 168.174 338 168z"/>
<path style="fill:#e98b74; stroke:none;" d="M342.667 168.333C342.222 168.778 343.278 168.722 343.333 168.667C343.778 168.222 342.722 168.278 342.667 168.333z"/>
<path style="fill:#f5c6bb; stroke:none;" d="M344 168L345 169L344 168z"/>
<path style="fill:#efab9a; stroke:none;" d="M306 169L307 170L306 169z"/>
<path style="fill:#e98b74; stroke:none;" d="M338 169L339 170L338 169z"/>
<path style="fill:#f5c3b7; stroke:none;" d="M339 169L340 170L339 169z"/>
<path style="fill:#e98b74; stroke:none;" d="M289 170L290 171L289 170z"/>
<path style="fill:#f0a697; stroke:none;" d="M299 170L300 171L299 170z"/>
<path style="fill:#e98b74; stroke:none;" d="M334 170L335 171L334 170z"/>
<path style="fill:#f5c3b7; stroke:none;" d="M335 170L336 171L335 170M307 171L308 172L307 171z"/>
<path style="fill:#e98b74; stroke:none;" d="M330 171L331 172L330 171z"/>
<path style="fill:#f5c3b7; stroke:none;" d="M331 171L332 172L331 171z"/>
<path style="fill:#efab9a; stroke:none;" d="M300 172L301 173L300 172z"/>
<path style="fill:#f0a697; stroke:none;" d="M308 172L309 173L308 172z"/>
<path style="fill:#dc3e1a; stroke:none;" d="M323 172C324.506 172.683 325.315 172.826 327 173C325.494 172.317 324.685 172.174 323 172z"/>
<path style="fill:#ec957f; stroke:none;" d="M327 172L328 173L327 172z"/>
<path style="fill:#f5c3b7; stroke:none;" d="M328 172L329 173L328 172z"/>
<path style="fill:#efab9a; stroke:none;" d="M212 173L213 174L212 173z"/>
<path style="fill:#f0a697; stroke:none;" d="M296 173L297 174L296 173z"/>
<path style="fill:#efab9a; stroke:none;" d="M309 173L310 174L309 173z"/>
<path style="fill:#f5c6bb; stroke:none;" d="M324 173L325 174L324 173z"/>
<path style="fill:#f0a697; stroke:none;" d="M310 174L311 175L310 174z"/>
<path style="fill:#e98b74; stroke:none;" d="M321 174L322 175L321 174z"/>
<path style="fill:#f5c3b7; stroke:none;" d="M292 175L293 176L292 175z"/>
<path style="fill:#f0a697; stroke:none;" d="M297 175L298 176L297 175M302 175L303 176L302 175z"/>
<path style="fill:#e98b74; stroke:none;" d="M318 175L319 176L318 175z"/>
<path style="fill:#efab9a; stroke:none;" d="M211 176L212 177L211 176z"/>
<path style="fill:#e98b74; stroke:none;" d="M314.667 176.333C314.222 176.778 315.278 176.722 315.333 176.667C315.778 176.222 314.722 176.278 314.667 176.333z"/>
<path style="fill:#f0a697; stroke:none;" d="M293 177L294 178L293 177z"/>
<path style="fill:#f5c3b7; stroke:none;" d="M330 177L331 178L330 177z"/>
<path style="fill:#e98b74; stroke:none;" d="M331 177L332 178L331 177z"/>
<path style="fill:#efab9a; stroke:none;" d="M299 178L300 179L299 178M304 178L305 179L304 178z"/>
<path style="fill:#e98b74; stroke:none;" d="M327.667 178.333C327.222 178.778 328.278 178.722 328.333 178.667C328.778 178.222 327.722 178.278 327.667 178.333z"/>
<path style="fill:#efab9a; stroke:none;" d="M294 179L295 180L294 179M334 179L335 180L334 179z"/>
<path style="fill:#fae3dd; stroke:none;" d="M210.333 180.667C210.278 180.722 210.222 181.778 210.667 181.333C210.722 181.278 210.778 180.222 210.333 180.667z"/>
<path style="fill:#f0a697; stroke:none;" d="M301 181L302 182L301 181z"/>
<path style="fill:#efab9a; stroke:none;" d="M306 181L307 182L306 181z"/>
<path style="fill:#f0a697; stroke:none;" d="M327 181L328 182L327 181z"/>
<path style="fill:#efab9a; stroke:none;" d="M210 182L210 185C210.696 183.446 210.696 183.554 210 182M296 182L297 183L296 182M302 182L303 183L302 182M307 182L308 183L307 182z"/>
<path style="fill:#f5c6bb; stroke:none;" d="M335.333 182.667C335.278 182.722 335.222 183.778 335.667 183.333C335.722 183.278 335.778 182.222 335.333 182.667M308 183L309 184L308 183z"/>
<path style="fill:#f5beb5; stroke:none;" d="M309 184L310 185L309 184z"/>
<path style="fill:#e98b74; stroke:none;" d="M328.333 184.667C328.278 184.722 328.222 185.778 328.667 185.333C328.722 185.278 328.778 184.222 328.333 184.667z"/>
<path style="fill:#e77155; stroke:none;" d="M335.333 184.667C335.278 184.722 335.222 185.778 335.667 185.333C335.722 185.278 335.778 184.222 335.333 184.667z"/>
<path style="fill:#f5c3b7; stroke:none;" d="M210 185L210 188C210.696 186.446 210.696 186.554 210 185z"/>
<path style="fill:#efab9a; stroke:none;" d="M298 185L299 186L298 185z"/>
<path style="fill:#f0a697; stroke:none;" d="M304 185L305 186L304 185z"/>
<path style="fill:#dc3e1a; stroke:none;" d="M329 185L329 192C330.059 189.466 330.059 187.534 329 185z"/>
<path style="fill:#f0a697; stroke:none;" d="M299 186L300 187L299 186M305 186L306 187L305 186z"/>
<path style="fill:#fae3dd; stroke:none;" d="M328.333 186.667C328.278 186.722 328.222 187.778 328.667 187.333C328.722 187.278 328.778 186.222 328.333 186.667z"/>
<path style="fill:#dc3e1a; stroke:none;" d="M335 186L335 197C336.431 193.59 336.431 189.41 335 186z"/>
<path style="fill:#efab9a; stroke:none;" d="M306 187L307 188L306 187z"/>
<path style="fill:#f5c3b7; stroke:none;" d="M312 187L313 188L312 187z"/>
<path style="fill:#fae3dd; stroke:none;" d="M210 188L210 191C210.696 189.446 210.696 189.554 210 188z"/>
<path style="fill:#efab9a; stroke:none;" d="M307 188L308 189L307 188z"/>
<path style="fill:#f0a697; stroke:none;" d="M313 188L314 189L313 188z"/>
<path style="fill:#fae3dd; stroke:none;" d="M336 188L336 191C336.696 189.446 336.696 189.554 336 188z"/>
<path style="fill:#f0a697; stroke:none;" d="M308 189L309 190L308 189z"/>
<path style="fill:#ec957f; stroke:none;" d="M314 189L315 190L314 189z"/>
<path style="fill:#efab9a; stroke:none;" d="M302 190L303 191L302 190z"/>
<path style="fill:#f0a697; stroke:none;" d="M309 190L310 191L309 190z"/>
<path style="fill:#f5c3b7; stroke:none;" d="M316 190L317 191L316 190z"/>
<path style="fill:#efab9a; stroke:none;" d="M303 191L304 192L303 191z"/>
<path style="fill:#f6d1c9; stroke:none;" d="M325 191L326 192L325 191z"/>
<path style="fill:#f5c3b7; stroke:none;" d="M336 191L336 196C336.83 193.969 336.83 193.03 336 191z"/>
<path style="fill:#efab9a; stroke:none;" d="M304 192L305 193L304 192z"/>
<path style="fill:#f5c6bb; stroke:none;" d="M320 192C321.248 192.685 321.548 192.749 323 193C321.752 192.315 321.452 192.251 320 192z"/>
<path style="fill:#e98b74; stroke:none;" d="M323 192L324 193L323 192z"/>
<path style="fill:#e77155; stroke:none;" d="M324.333 192.667C324.278 192.722 324.222 193.778 324.667 193.333C324.722 193.278 324.778 192.222 324.333 192.667z"/>
<path style="fill:#f0a697; stroke:none;" d="M305 193L306 194L305 193M313 193L314 194L313 193M211.333 194.667C211.278 194.722 211.222 195.778 211.667 195.333C211.722 195.278 211.778 194.222 211.333 194.667M306 194L307 195L306 194z"/>
<path style="fill:#efab9a; stroke:none;" d="M307 195L308 196L307 195z"/>
<path style="fill:#e98b74; stroke:none;" d="M317 195L318 196L317 195M322 195L323 196L322 195z"/>
<path style="fill:#efab9a; stroke:none;" d="M328.333 197.667C328.278 197.722 328.222 198.778 328.667 198.333C328.722 198.278 328.778 197.222 328.333 197.667z"/>
<path style="fill:#e98b74; stroke:none;" d="M212.333 199.667C212.278 199.722 212.222 200.778 212.667 200.333C212.722 200.278 212.778 199.222 212.333 199.667z"/>
<path style="fill:#efab9a; stroke:none;" d="M312 199L313 200L312 199z"/>
<path style="fill:#f0a697; stroke:none;" d="M335.333 199.667C335.278 199.722 335.222 200.778 335.667 200.333C335.722 200.278 335.778 199.222 335.333 199.667z"/>
<path style="fill:#f5c3b7; stroke:none;" d="M314 200L315 201L314 200z"/>
<path style="fill:#efab9a; stroke:none;" d="M327 200L328 201L327 200z"/>
<path style="fill:#f5c3b7; stroke:none;" d="M318 202L319 203L318 202z"/>
<path style="fill:#f5c6bb; stroke:none;" d="M325 202L326 203L325 202z"/>
<path style="fill:#e98b74; stroke:none;" d="M334 202L335 203L334 202M213 203L214 204L213 203z"/>
<path style="fill:#e77155; stroke:none;" d="M320.667 203.333C320.222 203.778 321.278 203.722 321.333 203.667C321.778 203.222 320.722 203.278 320.667 203.333z"/>
<path style="fill:#ec957f; stroke:none;" d="M322.667 203.333C322.222 203.778 323.278 203.722 323.333 203.667C323.778 203.222 322.722 203.278 322.667 203.333z"/>
<path style="fill:#efab9a; stroke:none;" d="M333 204L334 205L333 204z"/>
<path style="fill:#e98b74; stroke:none;" d="M214 206L215 207L214 206z"/>
<path style="fill:#f5beb5; stroke:none;" d="M214 207L215 208L214 207z"/>
<path style="fill:#e98b74; stroke:none;" d="M215 209L216 210L215 209z"/>
<path style="fill:#f5c3b7; stroke:none;" d="M328 209L329 210L328 209z"/>
<path style="fill:#e98b74; stroke:none;" d="M325 210L326 211L325 210M322 211L323 212L322 211z"/>
<path style="fill:#f5c3b7; stroke:none;" d="M323 211L324 212L323 211z"/>
<path style="fill:#ec957f; stroke:none;" d="M319 212L320 213L319 212z"/>
<path style="fill:#f5c3b7; stroke:none;" d="M320 212L321 213L320 212M200 213C201.248 213.685 201.548 213.749 203 214C201.752 213.315 201.452 213.251 200 213z"/>
<path style="fill:#e98b74; stroke:none;" d="M203 213C204.248 213.685 204.548 213.749 206 214C204.752 213.315 204.452 213.251 203 213z"/>
<path style="fill:#df5131; stroke:none;" d="M198 235C194.445 238.053 191.467 241.063 191.12 246C190.624 253.086 196.371 260.237 203.985 257.396C209.389 255.379 211.991 248.366 215.158 244C217.006 241.452 220.531 238.337 220.698 235C220.844 232.086 218.181 229.265 216.671 227C213.686 222.525 211.069 217.968 209 213C202.522 214.33 196.633 214.671 190 214.962C186.293 215.125 182.264 214.874 179.279 217.514C173.654 222.486 177.637 230.839 183.015 234.142C187.454 236.868 193.199 236.143 198 235z"/>
<path style="fill:#f5c6bb; stroke:none;" d="M317 213L318 214L317 213M186 214C187.248 214.685 187.548 214.749 189 215C187.752 214.315 187.452 214.251 186 214z"/>
<path style="fill:#efab9a; stroke:none;" d="M189.667 214.333C189.222 214.778 190.278 214.722 190.333 214.667C190.778 214.222 189.722 214.278 189.667 214.333z"/>
<path style="fill:#e98b74; stroke:none;" d="M191.667 214.333C191.222 214.778 192.278 214.722 192.333 214.667C192.778 214.222 191.722 214.278 191.667 214.333z"/>
<path style="fill:#e77155; stroke:none;" d="M193.667 214.333C193.222 214.778 194.278 214.722 194.333 214.667C194.778 214.222 193.722 214.278 193.667 214.333z"/>
<path style="fill:#dc3e1a; stroke:none;" d="M197 214C199.613 215.098 202.165 214.993 205 215C202.387 213.902 199.835 214.007 197 214z"/>
<path style="fill:#efab9a; stroke:none;" d="M209 214L210 215L209 214z"/>
<path style="fill:#f5c3b7; stroke:none;" d="M217 214L218 215L217 214z"/>
<path style="fill:#e98b74; stroke:none;" d="M314 214L315 215L314 214M182 215L183 216L182 215z"/>
<path style="fill:#f5c3b7; stroke:none;" d="M312 215L313 216L312 215z"/>
<path style="fill:#efab9a; stroke:none;" d="M210 216L211 217L210 216z"/>
<path style="fill:#f5c6bb; stroke:none;" d="M218 216L219 217L218 216z"/>
<path style="fill:#e98b74; stroke:none;" d="M309 216L310 217L309 216z"/>
<path style="fill:#f5c3b7; stroke:none;" d="M307 217L308 218L307 217z"/>
<path style="fill:#efab9a; stroke:none;" d="M211 218L212 219L211 218z"/>
<path style="fill:#f5c3b7; stroke:none;" d="M219 218L220 219L219 218z"/>
<path style="fill:#e98b74; stroke:none;" d="M304 218L305 219L304 218M302 219L303 220L302 219z"/>
<path style="fill:#efab9a; stroke:none;" d="M212 220L213 221L212 220z"/>
<path style="fill:#f5c6bb; stroke:none;" d="M300 220L301 221L300 220z"/>
<path style="fill:#f0a697; stroke:none;" d="M176 221L177 222L176 221M221 221L222 222L221 221z"/>
<path style="fill:#f5c3b7; stroke:none;" d="M298 221L299 222L298 221z"/>
<path style="fill:#efab9a; stroke:none;" d="M213 222L214 223L213 222z"/>
<path style="fill:#ec957f; stroke:none;" d="M222 222L223 223L222 222z"/>
<path style="fill:#dc3e1a; stroke:none;" d="M292 223C293.659 223.406 294.242 223.309 296 223C294.191 222.426 293.931 222.535 292 223z"/>
<path style="fill:#f5c6bb; stroke:none;" d="M296 222L297 223L296 222M294 223L295 224L294 223z"/>
<path style="fill:#f0a697; stroke:none;" d="M223 224L224 225L223 224z"/>
<path style="fill:#f5c3b7; stroke:none;" d="M292 224L293 225L292 224z"/>
<path style="fill:#f0a697; stroke:none;" d="M176.333 225.667C176.278 225.722 176.222 226.778 176.667 226.333C176.722 226.278 176.778 225.222 176.333 225.667z"/>
<path style="fill:#efab9a; stroke:none;" d="M215 225L216 226L215 225M224 225L225 226L224 225M290 225L291 226L290 225z"/>
<path style="fill:#e98b74; stroke:none;" d="M177 228L178 229L177 228z"/>
<path style="fill:#f0a697; stroke:none;" d="M217 228L218 229L217 228M285 228L286 229L285 228M227 229L228 230L227 229M178 230L179 231L178 230M228 230L229 231L228 230M282 230L283 231L282 230z"/>
<path style="fill:#efab9a; stroke:none;" d="M179 231L180 232L179 231M219 231L220 232L219 231M229 231L230 232L229 231z"/>
<path style="fill:#e98b74; stroke:none;" d="M180 232L181 233L180 232z"/>
<path style="fill:#efab9a; stroke:none;" d="M220 232L221 233L220 232M230 232L231 233L230 232M181 233L182 234L181 233z"/>
<path style="fill:#f5c3b7; stroke:none;" d="M221 233L222 234L221 233z"/>
<path style="fill:#e98b74; stroke:none;" d="M232 234L233 235L232 234z"/>
<path style="fill:#efab9a; stroke:none;" d="M185 235L186 236L185 235z"/>
<path style="fill:#f0a697; stroke:none;" d="M196 235L196 237C197.635 236.455 197.455 236.635 198 235L196 235z"/>
<path style="fill:#e98b74; stroke:none;" d="M221 235L222 236L221 235z"/>
<path style="fill:#efab9a; stroke:none;" d="M233 235L234 236L233 235z"/>
<path style="fill:#fae3dd; stroke:none;" d="M188.667 236.333C188.222 236.778 189.278 236.722 189.333 236.667C189.778 236.222 188.722 236.278 188.667 236.333z"/>
<path style="fill:#f5c3b7; stroke:none;" d="M190 236C191.248 236.685 191.548 236.749 193 237C191.752 236.315 191.452 236.251 190 236z"/>
<path style="fill:#f0a697; stroke:none;" d="M234 236L235 237L234 236z"/>
<path style="fill:#f5c3b7; stroke:none;" d="M235 237L236 238L235 237z"/>
<path style="fill:#e98b74; stroke:none;" d="M272 238L273 239L272 238z"/>
<path style="fill:#f5c3b7; stroke:none;" d="M218 239L219 240L218 239z"/>
<path style="fill:#efab9a; stroke:none;" d="M271 239L272 240L271 239z"/>
<path style="fill:#f0a697; stroke:none;" d="M192 240L193 241L192 240z"/>
<path style="fill:#e98b74; stroke:none;" d="M217 240L218 241L217 240M239 240L240 241L239 240z"/>
<path style="fill:#efab9a; stroke:none;" d="M270 240L271 241L270 240M191 242L192 243L191 242M214 244L215 245L214 244M245 244L246 245L245 244M190 245L190 248C190.696 246.446 190.696 246.554 190 245z"/>
<path style="fill:#e98b74; stroke:none;" d="M247 245L248 246L247 245M249 246L250 247L249 246z"/>
<path style="fill:#f0a697; stroke:none;" d="M265 246L266 247L265 246z"/>
<path style="fill:#e98b74; stroke:none;" d="M212 247L213 248L212 247z"/>
<path style="fill:#f0a697; stroke:none;" d="M264 247L265 248L264 247z"/>
<path style="fill:#f5beb5; stroke:none;" d="M190.333 248.667C190.278 248.722 190.222 249.778 190.667 249.333C190.722 249.278 190.778 248.222 190.333 248.667z"/>
<path style="fill:#efab9a; stroke:none;" d="M255 248L256 249L255 248z"/>
<path style="fill:#dc3e1a; stroke:none;" d="M258 248C259.506 248.683 260.315 248.826 262 249C260.494 248.317 259.685 248.174 258 248z"/>
<path style="fill:#e98b74; stroke:none;" d="M262 248L263 249L262 248M191 251L192 252L191 251z"/>
<path style="fill:#f5beb5; stroke:none;" d="M191 252L192 253L191 252z"/>
<path style="fill:#f0a697; stroke:none;" d="M209 252L210 253L209 252z"/>
<path style="fill:#ec957f; stroke:none;" d="M192 253L193 254L192 253z"/>
<path style="fill:#e98b74; stroke:none;" d="M196 257L197 258L196 257z"/>
<path style="fill:#f5beb5; stroke:none;" d="M198 258L199 259L198 258z"/>
<path style="fill:#e77155; stroke:none;" d="M199.667 258.333C199.222 258.778 200.278 258.722 200.333 258.667C200.778 258.222 199.722 258.278 199.667 258.333z"/>
<path style="fill:#e98b74; stroke:none;" d="M201.667 258.333C201.222 258.778 202.278 258.722 202.333 258.667C202.778 258.222 201.722 258.278 201.667 258.333z"/>
<path style="fill:#f5c3b7; stroke:none;" d="M90 329L90 400C92.2922 394.538 91 386.887 91 381L91 346C91 340.65 92.0851 333.969 90 329z"/>
<path style="fill:#dc3e1a; stroke:none;" d="M91 329L91 400L125 400C121.301 398.448 116.983 399 113 399L92 399L92 330L126 330C122.301 328.448 117.983 329 114 329L91 329z"/>
<path style="fill:#df5131; stroke:none;" d="M92 330L92 399C100.992 399 110.011 398.795 119 399.015C125.506 399.174 130.837 400.043 136.999 397.081C146.099 392.707 150.013 379.854 144.91 371.004C142.614 367.02 138.972 364.976 135 363C146.502 357.478 148.246 338.138 135.995 331.839C130.409 328.966 124.984 329.927 119 329.996C110.003 330.1 100.998 330 92 330z"/>
<path style="fill:#e98b74; stroke:none;" d="M128 329L129 330L128 329M159 329L159 400C161.085 395.031 160 388.35 160 383L160 348C160 342.113 161.292 334.462 159 329z"/>
<path style="fill:#dc3e1a; stroke:none;" d="M160 329C164.469 330.875 170.191 330 175 330L206 330L206 339C207.327 335.837 207 332.414 207 329L160 329z"/>
<path style="fill:#df5131; stroke:none;" d="M219 329L219 399L266 399L266 389L231 389C231 384.03 229.184 374.579 232.028 370.318C233.919 367.484 238.054 368.006 241 368L263 368L263 360L241 360C238.053 359.994 234.065 360.508 232.179 357.682C229.245 353.285 231 344.098 231 339L266 339L266 330C251.045 330 233.57 332.469 219 329z"/>
<path style="fill:#dc3e1a; stroke:none;" d="M220 329C224.469 330.875 230.191 330 235 330L266 330C261.531 328.125 255.809 329 251 329L220 329z"/>
<path style="fill:#e77155; stroke:none;" d="M266 329L266 339L232 339C235.699 340.552 240.017 340 244 340L267 340C267 336.3 267.44 332.432 266 329z"/>
<path style="fill:#dc3e1a; stroke:none;" d="M279 329L279 400L292 400C292 389.94 290.662 378.822 293 369C290.396 371.276 291.001 374.683 291 378L291 399L280 399L280 330L325 330C320.531 328.125 314.809 329 310 329L279 329z"/>
<path style="fill:#e98b74; stroke:none;" d="M325 329L325 340C326.431 336.59 326.431 332.41 325 329z"/>
<path style="fill:#df5131; stroke:none;" d="M335 329L335 399L348 399L348 329L335 329z"/>
<path style="fill:#ec957f; stroke:none;" d="M348 329L348 400C350.085 395.031 349 388.35 349 383L349 348C349 342.113 350.292 334.462 348 329z"/>
<path style="fill:#df5131; stroke:none;" d="M363 329L363 399L375 399L375 352C384.936 360.683 392.473 373.583 400.576 384C403.963 388.354 407.766 396.277 413.09 398.397C415.765 399.461 419.178 399 422 399L422 330L412 330L412 377C401.269 368.787 393.53 354.61 385.21 344C381.954 339.848 378.676 333.743 373.91 331.179C370.753 329.48 366.468 329.826 363 329z"/>
<path style="fill:#dc3e1a; stroke:none;" d="M364 329C367.112 330.309 370.679 330.209 374 331C371.569 328.218 367.509 329 364 329z"/>
<path style="fill:#f5c3b7; stroke:none;" d="M410 329C410 344.682 408.293 361.473 410 377C411.552 373.301 411 368.983 411 365L411 342C411 337.74 411.661 332.959 410 329z"/>
<path style="fill:#dc3e1a; stroke:none;" d="M411 329L411 377C412.981 372.28 412 366.08 412 361L412 330L422 330L422 399L413 399C416.163 400.327 419.586 400 423 400L423 329L411 329M435 329C439.719 330.98 445.897 328.213 449 333C449.683 331.494 449.826 330.685 450 329L435 329z"/>
<path style="fill:#df5131; stroke:none;" d="M160 330L160 399L206 399C206.01 395.545 206.198 392.368 207 389L183 389C180.083 389 175.882 389.683 173.318 387.972C169.242 385.252 169.479 370.642 174.148 368.603C176.986 367.364 180.978 368 184 368L204 368L204 360L184 360C181.022 360 177.014 360.653 174.228 359.397C169.447 357.241 169.31 342.866 173.434 340.028C175.938 338.304 180.132 339 183 339L206 339L206 330L160 330M280 330L280 399L291 399L291 369C301.12 371.409 312.633 370 323 370L323 360L304 360C301.022 360 297.014 360.653 294.228 359.397C289.447 357.241 289.31 342.866 293.434 340.028C295.938 338.304 300.132 339 303 339L325 339L325 330L280 330z"/>
<path style="fill:#e98b74; stroke:none;" d="M374 330L375 331L374 330z"/>
<path style="fill:#fef0ee; stroke:none;" d="M423 330L423 400C425.085 395.031 424 388.35 424 383L424 349C424 343.113 425.292 335.462 423 330z"/>
<path style="fill:#df5131; stroke:none;" d="M435 330C436.231 333.917 436.669 336.93 436 341C438.849 344.78 438.537 352.212 439 357L446 357C446 353.739 445.857 353.464 448 354C446.693 346.046 449.509 337.979 449 330L435 330z"/>
<path style="fill:#ee9f8d; stroke:none;" d="M135 331L136 332L135 331z"/>
<path style="fill:#f5c6bb; stroke:none;" d="M375 331L376 332L375 331z"/>
<path style="fill:#e98b74; stroke:none;" d="M435 331L435 334C435.696 332.446 435.696 332.554 435 331z"/>
<path style="fill:#f5c3b7; stroke:none;" d="M137 332L138 333L137 332z"/>
<path style="fill:#e77c63; stroke:none;" d="M377 334L378 335L377 334z"/>
<path style="fill:#f6d1c9; stroke:none;" d="M435.333 334.667C435.278 334.722 435.222 335.778 435.667 335.333C435.722 335.278 435.778 334.222 435.333 334.667z"/>
<path style="fill:#dc3e1a; stroke:none;" d="M436 334L436 339C436.83 336.97 436.83 336.03 436 334z"/>
<path style="fill:#e98b74; stroke:none;" d="M449.333 334.667C449.278 334.722 449.222 335.778 449.667 335.333C449.722 335.278 449.778 334.222 449.333 334.667z"/>
<path style="fill:#efab9a; stroke:none;" d="M378 335L379 336L378 335z"/>
<path style="fill:#dc3e1a; stroke:none;" d="M448 335L448 342C449.059 339.466 449.059 337.534 448 335z"/>
<path style="fill:#f5beb5; stroke:none;" d="M449.333 336.667C449.278 336.722 449.222 337.778 449.667 337.333C449.722 337.278 449.778 336.222 449.333 336.667z"/>
<path style="fill:#e98b74; stroke:none;" d="M142 337L143 338L142 337z"/>
<path style="fill:#dc3e1a; stroke:none;" d="M102 338L102 357C104.191 351.778 103 344.632 103 339L122 339C116.285 336.602 108.169 338 102 338M142 338C143.011 342.421 143.962 346.435 144 351C145.842 346.609 145.107 341.573 142 338z"/>
<path style="fill:#ec957f; stroke:none;" d="M103 339L103 359C105.087 354.027 105.087 343.973 103 339z"/>
<path style="fill:#fae3dd; stroke:none;" d="M104 339C108.724 340.982 114.91 340 120 340C115.276 338.018 109.09 339 104 339z"/>
<path style="fill:#f6d1c9; stroke:none;" d="M120 339C121.248 339.685 121.548 339.749 123 340C121.752 339.315 121.452 339.251 120 339z"/>
<path style="fill:#e77155; stroke:none;" d="M172 339C175.699 340.552 180.017 340 184 340L207 340C203.301 338.448 198.983 339 195 339L172 339z"/>
<path style="fill:#dc3e1a; stroke:none;" d="M231 339L231 358C233.02 353.187 233.02 343.813 231 339z"/>
<path style="fill:#e77155; stroke:none;" d="M292 339C295.699 340.552 300.017 340 304 340L325 340C321.301 338.448 316.983 339 313 339L292 339z"/>
<path style="fill:#ee9f8d; stroke:none;" d="M381 339L382 340L381 339z"/>
<path style="fill:#ffffff; stroke:none;" d="M104 340L104 358C110.905 358 121.703 360.027 127.891 356.543C133.344 353.474 133.344 344.526 127.891 341.457C121.703 337.973 110.905 340 104 340z"/>
<path style="fill:#f5c3b7; stroke:none;" d="M126 340L127 341L126 340z"/>
<path style="fill:#f6d1c9; stroke:none;" d="M172 340L172 358C173.952 353.349 173.952 344.651 172 340M292 340L292 359C294.02 354.187 294.02 344.813 292 340z"/>
<path style="fill:#f5beb5; stroke:none;" d="M128 341L129 342L128 341z"/>
<path style="fill:#efab9a; stroke:none;" d="M144 341L145 342L144 341z"/>
<path style="fill:#dc3e1a; stroke:none;" d="M171 341L171 358C172.883 353.513 172.883 345.487 171 341M291 341L291 358C292.883 353.514 292.883 345.487 291 341z"/>
<path style="fill:#ec957f; stroke:none;" d="M436 341L436 344C436.696 342.446 436.696 342.554 436 341z"/>
<path style="fill:#dc3e1a; stroke:none;" d="M437 341L437 349C438.161 346.23 438.161 343.77 437 341z"/>
<path style="fill:#e98b74; stroke:none;" d="M384 343L385 344L384 343z"/>
<path style="fill:#f5beb5; stroke:none;" d="M385 344L386 345L385 344z"/>
<path style="fill:#fae3dd; stroke:none;" d="M436.333 344.667C436.278 344.722 436.222 345.778 436.667 345.333C436.722 345.278 436.778 344.222 436.333 344.667z"/>
<path style="fill:#ec957f; stroke:none;" d="M448 344L448 347C448.696 345.446 448.696 345.554 448 344z"/>
<path style="fill:#f5c6bb; stroke:none;" d="M145 346L145 349C145.696 347.446 145.696 347.554 145 346z"/>
<path style="fill:#dc3e1a; stroke:none;" d="M447 347L447 352C447.83 349.97 447.83 349.03 447 347z"/>
<path style="fill:#fae3dd; stroke:none;" d="M448.333 347.667C448.278 347.722 448.222 348.778 448.667 348.333C448.722 348.278 448.778 347.222 448.333 347.667z"/>
<path style="fill:#efab9a; stroke:none;" d="M388 348L389 349L388 348z"/>
<path style="fill:#e77c63; stroke:none;" d="M437.333 350.667C437.278 350.722 437.222 351.778 437.667 351.333C437.722 351.278 437.778 350.222 437.333 350.667M375 352L375 400C376.552 396.301 376 391.983 376 388L376 365C376 360.74 376.661 355.959 375 352z"/>
<path style="fill:#efab9a; stroke:none;" d="M376 352L377 353L376 352z"/>
<path style="fill:#ec957f; stroke:none;" d="M391 352L392 353L391 352z"/>
<path style="fill:#efab9a; stroke:none;" d="M437 352L437 355C437.696 353.446 437.696 353.554 437 352z"/>
<path style="fill:#dc3e1a; stroke:none;" d="M438 352L438 358L447 358L447 353C446.317 354.506 446.174 355.315 446 357L439 357C438.912 355.036 438.779 353.769 438 352z"/>
<path style="fill:#efab9a; stroke:none;" d="M144 353L145 354L144 353z"/>
<path style="fill:#f6d1c9; stroke:none;" d="M392 353L393 354L392 353z"/>
<path style="fill:#ee9f8d; stroke:none;" d="M447.333 354.667C447.278 354.722 447.222 355.778 447.667 355.333C447.722 355.278 447.778 354.222 447.333 354.667z"/>
<path style="fill:#efab9a; stroke:none;" d="M143 355L144 356L143 355z"/>
<path style="fill:#f5c3b7; stroke:none;" d="M128 356L129 357L128 356z"/>
<path style="fill:#f5beb5; stroke:none;" d="M379 356L380 357L379 356z"/>
<path style="fill:#e98b74; stroke:none;" d="M394 356L395 357L394 356z"/>
<path style="fill:#f5c6bb; stroke:none;" d="M447.333 356.667C447.278 356.722 447.222 357.778 447.667 357.333C447.722 357.278 447.778 356.222 447.333 356.667z"/>
<path style="fill:#f5c3b7; stroke:none;" d="M126 357L127 358L126 357z"/>
<path style="fill:#f0a697; stroke:none;" d="M142 357L143 358L142 357z"/>
<path style="fill:#e77c63; stroke:none;" d="M380 357L381 358L380 357z"/>
<path style="fill:#f5c3b7; stroke:none;" d="M395 357L396 358L395 357z"/>
<path style="fill:#fae3dd; stroke:none;" d="M104 358C109.469 360.295 117.099 359 123 359C117.531 356.705 109.901 358 104 358z"/>
<path style="fill:#ee9f8d; stroke:none;" d="M172 358C175.699 359.552 180.017 359 184 359L205 359C201.301 357.448 196.983 358 193 358L172 358M232 358C235.699 359.552 240.017 359 244 359L264 359C260.301 357.448 255.983 358 252 358L232 358M438 358C440.89 359.213 443.874 358.998 447 359C444.11 357.787 441.126 358.002 438 358z"/>
<path style="fill:#dc3e1a; stroke:none;" d="M104 359C109.715 361.398 117.831 360 124 360C118.285 357.602 110.169 359 104 359M172 359C175.699 360.552 180.017 360 184 360L204 360C200.301 358.448 195.983 359 192 359L172 359z"/>
<path style="fill:#e77155; stroke:none;" d="M204 359L204 369C205.346 365.793 205.346 362.207 204 359z"/>
<path style="fill:#dc3e1a; stroke:none;" d="M232 359C240.367 362.511 253.924 360 263 360L263 368L240 368C237.58 368.005 233.745 367.436 232.028 369.603C228.978 373.454 231 384.25 231 389C233.398 383.285 232 375.169 232 369L264 369L264 359L232 359z"/>
<path style="fill:#efab9a; stroke:none;" d="M264 359L264 369C265.346 365.793 265.346 362.207 264 359z"/>
<path style="fill:#dc3e1a; stroke:none;" d="M292 359C300.367 362.511 313.924 360 323 360C314.633 356.489 301.076 359 292 359z"/>
<path style="fill:#ee9f8d; stroke:none;" d="M323 359L323 369C324.346 365.793 324.346 362.207 323 359z"/>
<path style="fill:#e98b74; stroke:none;" d="M139 360L140 361L139 360z"/>
<path style="fill:#f5c6bb; stroke:none;" d="M382 360L383 361L382 360z"/>
<path style="fill:#efab9a; stroke:none;" d="M138 361L139 362L138 361z"/>
<path style="fill:#e98b74; stroke:none;" d="M383 361L384 362L383 361z"/>
<path style="fill:#efab9a; stroke:none;" d="M398 361L399 362L398 361z"/>
<path style="fill:#ec957f; stroke:none;" d="M136 362L137 363L136 362z"/>
<path style="fill:#e98b74; stroke:none;" d="M135 363L136 364L135 363z"/>
<path style="fill:#f0a697; stroke:none;" d="M386 365L387 366L386 365z"/>
<path style="fill:#ec957f; stroke:none;" d="M401 365L402 366L401 365z"/>
<path style="fill:#f6d1c9; stroke:none;" d="M402 366L403 367L402 366z"/>
<path style="fill:#dc3e1a; stroke:none;" d="M104 368C109.959 370.5 118.564 369 125 369C119.041 366.5 110.436 368 104 368z"/>
<path style="fill:#f5c6bb; stroke:none;" d="M143 368L144 369L143 368z"/>
<path style="fill:#dc3e1a; stroke:none;" d="M171 388C173.295 382.531 172 374.901 172 369L204 369C197.332 366.202 187.206 367.985 180 368C177.58 368.005 173.745 367.436 172.028 369.603C169.093 373.308 171 383.443 171 388z"/>
<path style="fill:#ec957f; stroke:none;" d="M103 369L103 390C105.153 384.869 105.153 374.131 103 369z"/>
<path style="fill:#ffffff; stroke:none;" d="M104 369L104 389C111.013 389 122.654 391.222 128.945 387.821C135.379 384.343 135.3 374.639 128.956 371.175C122.044 367.401 111.576 369 104 369z"/>
<path style="fill:#fae3dd; stroke:none;" d="M122 369C123.248 369.685 123.548 369.749 125 370C123.752 369.315 123.452 369.251 122 369z"/>
<path style="fill:#ee9f8d; stroke:none;" d="M125 369L126 370L125 369M172 369L173 370L172 369z"/>
<path style="fill:#f6d1c9; stroke:none;" d="M173 369C181.367 372.511 194.924 370 204 370C195.633 366.489 182.076 369 173 369M232 369C235.699 370.552 240.017 370 244 370L264 370C260.301 368.448 255.983 369 252 369L232 369z"/>
<path style="fill:#f5beb5; stroke:none;" d="M389 369L390 370L389 369z"/>
<path style="fill:#e98b74; stroke:none;" d="M404 369L405 370L404 369z"/>
<path style="fill:#f5beb5; stroke:none;" d="M128 370L129 371L128 370z"/>
<path style="fill:#f6d1c9; stroke:none;" d="M172 370L172 389C174.02 384.187 174.02 374.813 172 370M292 370L292 400C294.395 394.293 293 386.154 293 380C293 376.581 293.328 373.166 292 370z"/>
<path style="fill:#f5beb5; stroke:none;" d="M405 370L406 371L405 370z"/>
<path style="fill:#ee9f8d; stroke:none;" d="M130 371L131 372L130 371z"/>
<path style="fill:#f5beb5; stroke:none;" d="M145 371L146 372L145 371M131 372L132 373L131 372z"/>
<path style="fill:#ec957f; stroke:none;" d="M132 373L133 374L132 373z"/>
<path style="fill:#f5c6bb; stroke:none;" d="M392 373L393 374L392 373z"/>
<path style="fill:#f0a697; stroke:none;" d="M146 374L147 375L146 374z"/>
<path style="fill:#e98b74; stroke:none;" d="M393 374L394 375L393 374z"/>
<path style="fill:#f0a697; stroke:none;" d="M408 374L409 375L408 374z"/>
<path style="fill:#ec957f; stroke:none;" d="M133 375L134 376L133 375z"/>
<path style="fill:#dc3e1a; stroke:none;" d="M134 375L134 383C135.161 380.23 135.161 377.77 134 375z"/>
<path style="fill:#f0a697; stroke:none;" d="M396 378L397 379L396 378z"/>
<path style="fill:#f6d1c9; stroke:none;" d="M133 382L134 383L133 382z"/>
<path style="fill:#f5beb5; stroke:none;" d="M399 382L400 383L399 382z"/>
<path style="fill:#e98b74; stroke:none;" d="M133 383L134 384L133 383z"/>
<path style="fill:#e77c63; stroke:none;" d="M400 383L401 384L400 383z"/>
<path style="fill:#ee9f8d; stroke:none;" d="M146 385L147 386L146 385z"/>
<path style="fill:#e98b74; stroke:none;" d="M131 386L132 387L131 386z"/>
<path style="fill:#f5c6bb; stroke:none;" d="M402 386L403 387L402 386z"/>
<path style="fill:#ec957f; stroke:none;" d="M403 387L404 388L403 387z"/>
<path style="fill:#e98b74; stroke:none;" d="M128 388L129 389L128 388z"/>
<path style="fill:#ec957f; stroke:none;" d="M145 388L146 389L145 388z"/>
<path style="fill:#f6d1c9; stroke:none;" d="M104 389C109.222 391.191 116.368 390 122 390C116.778 387.809 109.632 389 104 389z"/>
<path style="fill:#efab9a; stroke:none;" d="M122 389C123.248 389.685 123.548 389.749 125 390C123.752 389.315 123.452 389.251 122 389z"/>
<path style="fill:#e77c63; stroke:none;" d="M266 389L266 400C267.431 396.59 267.431 392.41 266 389z"/>
<path style="fill:#dc3e1a; stroke:none;" d="M104 390C109.715 392.398 117.831 391 124 391C118.285 388.602 110.169 390 104 390z"/>
<path style="fill:#ec957f; stroke:none;" d="M144 390L145 391L144 390z"/>
<path style="fill:#dc3e1a; stroke:none;" d="M206 390L206 399L160 399C164.72 400.981 170.92 400 176 400L207 400C207 396.586 207.327 393.163 206 390z"/>
<path style="fill:#ee9f8d; stroke:none;" d="M406 391L407 392L406 391z"/>
<path style="fill:#f5beb5; stroke:none;" d="M409 395L410 396L409 395z"/>
<path style="fill:#f5c6bb; stroke:none;" d="M138 396L139 397L138 396z"/>
<path style="fill:#f5beb5; stroke:none;" d="M136 397L137 398L136 397z"/>
<path style="fill:#e98b74; stroke:none;" d="M133 398L134 399L133 398z"/>
<path style="fill:#f0a697; stroke:none;" d="M129 399L130 400L129 399z"/>
<path style="fill:#dc3e1a; stroke:none;" d="M219 399C223.72 400.981 229.92 400 235 400L266 400C261.28 398.019 255.08 399 250 399L219 399M335 399C338.959 400.661 343.737 400 348 400C344.041 398.339 339.263 399 335 399M363 399C366.697 400.552 371.017 400 375 400C371.302 398.448 366.983 399 363 399z"/>
<path style="fill:#f5c3b7; stroke:none;" d="M412 399L413 400L412 399z"/>
</svg>
